<svg xmlns="http://www.w3.org/2000/svg" fill="none" viewBox="0 0 170 171">
  <g clip-path="url(#clip0_1159_56)">
    <path fill="url(#paint0_linear_1159_56)" d="M3.63 84.48c0 14.36 3.76 28.4 10.9 40.76L2.95 167.49l43.32-11.34a81.8 81.8 0 0 0 39.05 9.92h.03c45.04 0 81.7-36.57 81.72-81.53a80.95 80.95 0 0 0-23.92-57.68 81.28 81.28 0 0 0-57.8-23.9c-45.04 0-81.7 36.56-81.71 81.52"/>
    <path fill="url(#paint1_linear_1159_56)" d="M.71 84.45c0 14.88 3.9 29.41 11.3 42.22L0 170.44l44.87-11.75a84.74 84.74 0 0 0 40.45 10.28h.04c46.64 0 84.62-37.89 84.64-84.45a83.86 83.86 0 0 0-24.77-59.75A84.2 84.2 0 0 0 85.36 0C38.7 0 .73 37.89.7 84.45Zm26.72 40.02-1.67-2.66A69.9 69.9 0 0 1 15 84.46c.02-38.7 31.58-70.2 70.38-70.2a69.95 69.95 0 0 1 49.74 20.59 69.7 69.7 0 0 1 20.59 49.66c-.02 38.7-31.58 70.2-70.35 70.2h-.03a70.37 70.37 0 0 1-35.81-9.79l-2.57-1.52-26.63 6.97 7.11-25.9Z"/>
    <path fill="#fff" d="M64.2 49.14c-1.58-3.51-3.25-3.58-4.76-3.64-1.23-.06-2.64-.05-4.05-.05-1.41 0-3.7.53-5.64 2.64-1.94 2.11-7.4 7.22-7.4 17.6 0 10.39 7.57 20.43 8.63 21.84 1.06 1.4 14.63 23.4 36.13 31.86 17.87 7.03 21.5 5.63 25.38 5.28 3.88-.35 12.51-5.1 14.27-10.04 1.77-4.92 1.77-9.15 1.24-10.03-.53-.88-1.94-1.4-4.06-2.46-2.11-1.06-12.5-6.17-14.45-6.87-1.94-.7-3.35-1.06-4.76 1.06-1.4 2.1-5.46 6.86-6.7 8.27-1.22 1.4-2.46 1.59-4.57.53-2.12-1.06-8.93-3.29-17.01-10.48-6.29-5.6-10.53-12.5-11.77-14.62-1.23-2.1-.13-3.25.93-4.3.95-.95 2.12-2.47 3.17-3.7 1.06-1.23 1.41-2.11 2.12-3.52.7-1.4.35-2.64-.18-3.7-.53-1.05-4.64-11.5-6.52-15.67Z"/>
  </g>
  <defs>
    <linearGradient id="paint0_linear_1159_56" x1="8208.53" x2="8208.53" y1="16456.4" y2="2.95" gradientUnits="userSpaceOnUse">
      <stop stop-color="#1FAF38"/>
      <stop offset="1" stop-color="#60D669"/>
    </linearGradient>
    <linearGradient id="paint1_linear_1159_56" x1="8500" x2="8500" y1="17043.5" y2="0" gradientUnits="userSpaceOnUse">
      <stop stop-color="#F9F9F9"/>
      <stop offset="1" stop-color="#fff"/>
    </linearGradient>
    <clipPath id="clip0_1159_56">
      <path fill="#fff" d="M0 0h170v171H0z"/>
    </clipPath>
  </defs>
</svg>
