<svg xmlns="http://www.w3.org/2000/svg" fill="none" viewBox="0 0 3311 7894">
  <g fill="#fff" opacity=".16" style="mix-blend-mode:overlay">
    <g style="mix-blend-mode:overlay">
      <rect width="2508.7" height="334.59" x="1118.36" y="446.31" opacity=".4" rx="144.77" transform="rotate(29 1118.36 446.31)"/>
      <rect width="805.29" height="156.87" x="1048.54" y="314.74" rx="78.44" transform="rotate(29 1048.54 314.74)"/>
      <rect width="1580.36" height="439.22" x="1700.44" y=".35" opacity=".4" rx="144.77" transform="rotate(29 1700.44 .35)"/>
      <rect width="2268.78" height="288.03" x="574.67" y="425.01" opacity=".6" rx="144.01" transform="rotate(29 574.67 425.01)"/>
      <rect width="2730.2" height="253.14" x="384.99" y="715.21" rx="126.57" transform="rotate(29 384.99 715.2)"/>
      <rect width="2804.33" height="606.09" x="603.26" y="1080.79" opacity=".6" rx="144.77" transform="rotate(29 603.26 1080.79)"/>
    </g>
    <g style="mix-blend-mode:overlay">
      <rect width="2508.7" height="334.59" x="1118.42" y="2054.31" opacity=".4" rx="144.77" transform="rotate(29 1118.42 2054.31)"/>
      <rect width="2860.75" height="439.22" x="581.49" y="986.09" opacity=".4" rx="144.77" transform="rotate(29 581.49 986.09)"/>
      <rect width="2268.78" height="288.03" x="574.74" y="2033.01" opacity=".6" rx="144.01" transform="rotate(29 574.74 2033.01)"/>
      <rect width="2612.77" height="253.14" x="643.63" y="2467.01" opacity=".6" rx="126.57" transform="rotate(29 643.63 2467.01)"/>
      <rect width="3157.52" height="606.09" x="294.65" y="2517.14" opacity=".6" rx="144.77" transform="rotate(29 294.65 2517.14)"/>
    </g>
    <g style="mix-blend-mode:overlay">
      <rect width="2508.7" height="334.59" x="1118.39" y="3670.31" opacity=".4" rx="144.77" transform="rotate(29 1118.39 3670.31)"/>
      <rect width="1580.36" height="439.22" x="1700.47" y="3224.35" opacity=".4" rx="144.77" transform="rotate(29 1700.47 3224.35)"/>
      <rect width="2268.78" height="288.03" x="574.7" y="3649.01" opacity=".6" rx="144.01" transform="rotate(29 574.7 3649.01)"/>
      <rect width="2730.2" height="253.14" x="385.02" y="3939.21" rx="126.57" transform="rotate(29 385.02 3939.21)"/>
      <rect width="3157.52" height="606.09" x="294.62" y="4157.14" opacity=".6" rx="144.77" transform="rotate(29 294.62 4157.14)"/>
      <rect width="1221.64" height="156.87" x="684.66" y="3336.4" rx="78.44" transform="rotate(29 684.66 3336.4)"/>
    </g>
    <g style="mix-blend-mode:overlay">
      <path d="M696.93 5131.95 2940.78 6379.7l-162.61 292.42L534.32 5424.37z" opacity=".4"/>
      <rect width="2772.13" height="439.22" x="628.73" y="4324.37" opacity=".4" rx="144.77" transform="rotate(29 628.73 4324.37)"/>
      <rect width="2268.78" height="288.03" x="574.73" y="5345.01" opacity=".6" rx="144.01" transform="rotate(29 574.73 5345.01)"/>
      <rect width="2730.2" height="253.14" x="385.05" y="5635.21" rx="126.57" transform="rotate(29 385.05 5635.21)"/>
      <rect width="3157.52" height="606.09" x="294.64" y="5829.14" opacity=".6" rx="144.77" transform="rotate(29 294.64 5829.14)"/>
    </g>
  </g>
</svg>
