<svg xmlns="http://www.w3.org/2000/svg" fill="none" viewBox="0 0 144 144">
  <g clip-path="url(#clip0_757_25)">
    <path fill="url(#paint0_linear_757_25)" d="M138.62 88.12c10.06 10.8 4.4 28.56-10.05 31.54L22.58 141.54C8.48 144.45-3.47 131.06.92 117.27L33.11 16.24C37.5 2.45 55-1.56 64.8 8.97l73.8 79.15Z" opacity=".7"/>
    <path fill="#F6D813" d="M64 25c-13.11 0-25.94 4.85-35.18 16.05C19.58 52.25 14 69.43 14 93.75v12.5A13.8 13.8 0 0 0 27.75 120H51.2c4.57 3.13 9.75 5 15.3 5a3.76 3.76 0 1 0 0-7.5c-4.02 0-7.87-1.36-11.4-3.88-.3-.3-.63-.54-1-.72a31.35 31.35 0 0 1-5.9-6.2c-5.07-6.95-8.59-16.92-9.2-28.16a3.75 3.75 0 1 0-7.5.41c.7 12.54 4.55 23.83 10.65 32.18.35.48.74.91 1.1 1.37h-15.5a6.2 6.2 0 0 1-6.25-6.25v-12.5c0-23.18 5.33-38.5 13.1-47.92C42.39 36.4 52.69 32.5 64 32.5c5.62 0 9.32 1.38 11.62 2.65 2.3 1.28 2.95 2.2 2.95 2.2a3.75 3.75 0 0 0 2.93 1.4c5.5 0 17.4 4.1 24.47 21.42a3.76 3.76 0 1 0 6.95-2.84C105.27 38.6 92.07 32.1 82.95 31.5c-.73-.75-1.31-1.58-3.7-2.9C75.94 26.75 70.88 25 64 25Zm13.84 25a3.75 3.75 0 0 0-2.58.95c-4.65 4.13-12.84 6.66-19.86 7.85A84.17 84.17 0 0 1 42.75 60a3.75 3.75 0 1 0 0 7.5s6.24 0 13.91-1.3c7.06-1.2 15.4-3.52 21.85-8.43 1.32.27 3.9.92 7.12 3.13 4.2 2.9 8.37 7.71 8.37 17.85v12.5c0 6.26-5 11.25-11.25 11.25h-4.6a8.75 8.75 0 1 0 0 7.5h4.6a18.8 18.8 0 0 0 18.69-17.5h.06a10 10 0 0 0 10-10v-5a10 10 0 0 0-10-10h-1.91a26.32 26.32 0 0 0-9.72-12.78 29.08 29.08 0 0 0-11.66-4.7 3.75 3.75 0 0 0-.37-.02ZM54 77.5a5 5 0 1 0 0 10 5 5 0 0 0 0-10Zm25 0a5 5 0 1 0 0 10 5 5 0 0 0 0-10Zm36.2 14.95a3.75 3.75 0 0 0-3.7 3.8v10a6.2 6.2 0 0 1-6.25 6.25H96.5a3.74 3.74 0 0 0-3.51 5.2 3.74 3.74 0 0 0 3.51 2.3h8.75A13.8 13.8 0 0 0 119 106.25v-10a3.75 3.75 0 0 0-3.8-3.8Z"/>
  </g>
  <defs>
    <linearGradient id="paint0_linear_757_25" x1="143.7" x2="10.01" y1="142.29" y2="127.74" gradientUnits="userSpaceOnUse">
      <stop stop-color="#24AC9D"/>
      <stop offset="1" stop-color="#3B6FB5"/>
    </linearGradient>
    <clipPath id="clip0_757_25">
      <path fill="#fff" d="M0 0h144v144H0z"/>
    </clipPath>
  </defs>
</svg>
