<svg xmlns="http://www.w3.org/2000/svg" fill="none" viewBox="0 0 144 144">
  <path fill="url(#paint0_linear_757_19)" d="M131.55 63.54c12.25 8.23 10.77 26.82-2.63 33l-98.25 45.37c-13.07 6.03-27.76-4.3-26.6-18.73l8.4-105.7C13.64 3.07 29.77-4.81 41.72 3.22l89.84 60.33Z" opacity=".6"/>
  <path fill="#F6D813" d="M37.71 23C31.81 23 27 27.8 27 33.71v73.81c0 5.9 4.8 10.72 10.71 10.72h22.72c.1-.6.23-1.18.45-1.75.13-.53.29-1.09.45-1.67l1.07-3.73H37.71a3.58 3.58 0 0 1-3.57-3.57v-73.8c0-1.97 1.6-3.58 3.57-3.58H65.1v20.24c0 5.9 4.81 10.71 10.72 10.71h20.24v9.13c2.1-1.96 4.54-3.3 7.14-3.9v-8.8c0-.98-.4-1.88-1.05-2.52L71.2 24.05A3.56 3.56 0 0 0 68.67 23H37.7Zm34.53 12.2L91 53.94H75.8a3.58 3.58 0 0 1-3.56-3.57V35.19Zm34.52 35.42c-.66 0-1.32.06-1.98.18-2.1.38-4.12 1.48-5.81 3.18l-28.1 28.09a7.16 7.16 0 0 0-1.8 3.06l-3.74 13.05a3.62 3.62 0 0 0 .8 3.78 3.53 3.53 0 0 0 3.79.8l13.05-3.73a7.13 7.13 0 0 0 3.05-1.81l28.1-28.1c1.7-1.7 2.8-3.7 3.17-5.8a10.57 10.57 0 0 0-2.96-9.55 10.6 10.6 0 0 0-7.58-3.15Z"/>
  <defs>
    <linearGradient id="paint0_linear_757_19" x1="139.92" x2="13.22" y1="144.02" y2="131.41" gradientUnits="userSpaceOnUse">
      <stop stop-color="#24AC9D"/>
      <stop offset="1" stop-color="#3B6FB5"/>
    </linearGradient>
  </defs>
</svg>
