<svg xmlns="http://www.w3.org/2000/svg" fill="none" viewBox="0 0 144 144">
  <path fill="url(#paint0_linear_757_16)" d="M142.25 118.98c3.96 14.22-9.25 27.37-23.45 23.36L14.64 112.92C.8 109-3.64 91.6 6.62 81.4L81.73 6.56c10.25-10.2 27.63-5.7 31.5 8.16l29.02 104.26Z" opacity=".6"/>
  <path fill="#F6D813" d="M55.71 23C49.81 23 45 27.8 45 33.71v73.81c0 5.91 4.8 10.72 10.71 10.72h31.3a31.12 31.12 0 0 1-5.16-7.14H55.71a3.58 3.58 0 0 1-3.57-3.58v-73.8c0-1.97 1.6-3.58 3.57-3.58H83.1v20.24c0 5.9 4.8 10.72 10.71 10.72h20.24v5.16c2.49.39 4.89 1.04 7.14 1.99V57.52c0-.98-.4-1.88-1.05-2.52L89.2 24.05A3.56 3.56 0 0 0 86.67 23H55.7Zm34.53 12.2L109 53.94H93.8a3.58 3.58 0 0 1-3.56-3.57V35.2Zm19.05 35.42a26.2 26.2 0 1 0 0 52.38 26.2 26.2 0 0 0 0-52.38Zm14.28 14.28a2.37 2.37 0 0 1 1.69 4.07l-19.05 19.05a2.37 2.37 0 0 1-3.37 0l-9.52-9.53a2.38 2.38 0 1 1 3.36-3.36l7.84 7.84L121.9 85.6c.46-.46 1.07-.7 1.68-.7Z"/>
  <defs>
    <linearGradient id="paint0_linear_757_16" x1="142.96" x2="10.78" y1="143.42" y2="129.53" gradientUnits="userSpaceOnUse">
      <stop stop-color="#24AC9D"/>
      <stop offset="1" stop-color="#3B6FB5"/>
    </linearGradient>
  </defs>
</svg>
