<svg xmlns="http://www.w3.org/2000/svg" fill="none" viewBox="0 0 144 144">
  <path fill="url(#paint0_linear_757_22)" d="M47.64 14.91C53.89 1.54 72.48.15 80.65 12.45l59.9 90.13c7.96 12 0 28.08-14.43 29.16l-105.73 7.9c-14.43 1.07-24.7-13.66-18.6-26.7l45.85-98.03Z" opacity=".6"/>
  <path fill="#F6D813" d="M72 23c-27.58 0-50 22.42-50 50s22.42 50 50 50 50-22.42 50-50a49.55 49.55 0 0 0-9.02-28.62l-5.4 5.4A42.27 42.27 0 0 1 114.5 73 42.56 42.56 0 0 1 72 115.5 42.56 42.56 0 0 1 29.5 73 42.56 42.56 0 0 1 72 30.5c8.55 0 16.55 2.55 23.22 6.92l5.4-5.4A49.55 49.55 0 0 0 72 23Zm43.68 2.47a3.7 3.7 0 0 0-2.58 1.13L69.35 70.35a3.75 3.75 0 1 0 5.3 5.3L118.4 31.9a3.75 3.75 0 0 0-2.72-6.43ZM72 38c-19.3 0-35 15.7-35 35s15.7 35 35 35 35-15.7 35-35a34.7 34.7 0 0 0-4.87-17.77l-5.5 5.5A27.52 27.52 0 0 1 72 100.5a27.52 27.52 0 0 1-27.51-27.51 27.52 27.52 0 0 1 39.78-24.62l5.5-5.5A34.71 34.71 0 0 0 72 38Zm0 15c-11.02 0-20 8.98-20 20 0 11.03 8.98 20 20 20 11.03 0 20-8.97 20-20 0-2.28-.4-4.47-1.12-6.52l-6.38 6.37V73A12.5 12.5 0 1 1 72 60.5h.15l6.37-6.38A19.54 19.54 0 0 0 72 53Z"/>
  <defs>
    <linearGradient id="paint0_linear_757_22" x1="143.7" x2="10.08" y1="140.03" y2="125.14" gradientUnits="userSpaceOnUse">
      <stop stop-color="#24AC9D"/>
      <stop offset="1" stop-color="#3B6FB5"/>
    </linearGradient>
  </defs>
</svg>
