<svg xmlns="http://www.w3.org/2000/svg" fill="none" viewBox="0 0 144 144">
  <path fill="url(#paint0_linear_730_5)" d="M128.35 55.45c12.87 7.23 12.87 25.87 0 33.1L34 141.57c-12.55 7.05-28-2.08-28-16.55V18.98C6 4.51 21.45-4.62 34 2.43l94.35 53.02Z" opacity=".6"/>
  <path fill="#F6D813" d="M33.28 22A15.34 15.34 0 0 0 18 37.28v69.44c0 8.39 6.89 15.28 15.28 15.28h69.44c8.39 0 15.28-6.89 15.28-15.28V37.28c0-8.39-6.89-15.28-15.28-15.28H33.28Zm0 8.33h69.44a6.88 6.88 0 0 1 6.95 6.95v69.44a6.88 6.88 0 0 1-6.95 6.95H33.28a6.88 6.88 0 0 1-6.95-6.95V37.28a6.88 6.88 0 0 1 6.95-6.95ZM41.6 48.4a5.56 5.56 0 1 0 0 11.11 5.56 5.56 0 0 0 0-11.11Zm16.67 1.39a4.17 4.17 0 1 0 0 8.33h38.89a4.17 4.17 0 1 0 0-8.33h-38.9ZM41.6 67.83a5.56 5.56 0 1 0 0 11.11 5.56 5.56 0 0 0 0-11.1Zm16.67 1.4a4.17 4.17 0 1 0 0 8.33h38.89a4.17 4.17 0 1 0 0-8.34h-38.9ZM41.6 87.27a5.56 5.56 0 1 0 0 11.1 5.56 5.56 0 0 0 0-11.1Zm16.67 1.39a4.17 4.17 0 1 0 0 8.33h38.89a4.17 4.17 0 1 0 0-8.33h-38.9Z"/>
  <defs>
    <linearGradient id="paint0_linear_730_5" x1="138" x2="14.88" y1="144.36" y2="132.49" gradientUnits="userSpaceOnUse">
      <stop stop-color="#24AC9D"/>
      <stop offset="1" stop-color="#3B6FB5"/>
    </linearGradient>
  </defs>
</svg>
