<svg xmlns="http://www.w3.org/2000/svg" fill="none" viewBox="0 0 144 144">
  <path fill="url(#paint0_linear_668_36)" d="M128.35 55.45c12.87 7.23 12.87 25.87 0 33.1L34 141.57c-12.55 7.05-28-2.08-28-16.55V18.98C6 4.51 21.45-4.62 34 2.43l94.35 53.02Z" opacity=".6"/>
  <path fill="#F6D813" fill-rule="evenodd" d="M46.13 28c.63-5.58 5.38-10 11.12-10h17.5c5.74 0 10.49 4.42 11.12 10h8.88A11.3 11.3 0 0 1 106 39.25v67.5A11.3 11.3 0 0 1 94.75 118h-57.5A11.3 11.3 0 0 1 26 106.75v-67.5A11.3 11.3 0 0 1 37.25 28h8.88Zm28.62-2.5h-17.5a3.7 3.7 0 0 0-3.75 3.75A3.7 3.7 0 0 0 57.25 33h17.5a3.7 3.7 0 0 0 3.75-3.75 3.7 3.7 0 0 0-3.75-3.75Zm-26.83 10H37.25a3.7 3.7 0 0 0-3.75 3.75v67.5a3.7 3.7 0 0 0 3.75 3.75h57.5a3.7 3.7 0 0 0 3.75-3.75v-67.5a3.7 3.7 0 0 0-3.75-3.75H84.08c-2.03 3-5.47 5-9.33 5h-17.5c-3.86 0-7.3-2-9.33-5ZM43.3 60.77a3.6 3.6 0 0 1 1.45-.27h15a3.75 3.75 0 1 1 0 7.5h-15a3.75 3.75 0 0 1-1.45-7.23ZM84.6 79.1a3.75 3.75 0 1 1 5.3 5.3L86.3 88l3.6 3.6a3.75 3.75 0 1 1-5.3 5.3L81 93.3l-3.6 3.6a3.75 3.75 0 1 1-5.3-5.3l3.6-3.6-3.6-3.6a3.75 3.75 0 1 1 5.3-5.3l3.6 3.6 3.6-3.6Zm-41.3 4.17a3.6 3.6 0 0 1 1.45-.27h15a3.75 3.75 0 1 1 0 7.5h-15a3.75 3.75 0 0 1-1.45-7.23Z" clip-rule="evenodd"/>
  <path fill="#F6D813" d="M88.88 54.61c-.99.03-1.93.44-2.61 1.16L81 61.03l-3.6-3.6a3.75 3.75 0 1 0-5.3 5.3l3.6 3.6 1.76 1.77a5 5 0 0 0 7.08 0l1.76-1.77 5.27-5.26a3.75 3.75 0 0 0-2.69-6.46Z"/>
  <defs>
    <linearGradient id="paint0_linear_668_36" x1="138" x2="14.88" y1="144.36" y2="132.49" gradientUnits="userSpaceOnUse">
      <stop stop-color="#24AC9D"/>
      <stop offset="1" stop-color="#3B6FB5"/>
    </linearGradient>
  </defs>
</svg>
