<svg xmlns="http://www.w3.org/2000/svg" fill="none" viewBox="0 0 144 144">
  <path fill="url(#paint0_linear_724_33)" d="M128.35 55.45c12.87 7.23 12.87 25.87 0 33.1L34 141.57c-12.55 7.05-28-2.08-28-16.55V18.98C6 4.51 21.45-4.62 34 2.43l94.35 53.02Z" opacity=".7"/>
  <path fill="#F6D813" d="M32.89 22c-4.28 0-8.02 1.76-10.4 4.44A14.15 14.15 0 0 0 19 35.89c0 3.36 1.1 6.77 3.48 9.45a13.86 13.86 0 0 0 10.4 4.44c2.4 0 4.52-.64 6.43-1.58l6.06 6.06c-2.4 3.56-4.15 7.6-4.15 12.18 0 4.92 1.93 9.24 4.66 12.93l-7.03 7.77a14.68 14.68 0 0 0-5.96-1.25c-4.28 0-8.02 1.75-10.4 4.44A14.15 14.15 0 0 0 19 99.78c0 3.35 1.1 6.77 3.48 9.45a13.86 13.86 0 0 0 10.4 4.44c4.3 0 8.03-1.76 10.41-4.44a14.15 14.15 0 0 0 3.49-9.45c0-2.38-.78-4.69-1.94-6.84L52 85.02c3.4 2.1 7.17 3.65 11.43 3.65 1.35 0 2.52-.54 3.8-.77l4.17 9.53c-.55.44-1.25.72-1.7 1.23a14.15 14.15 0 0 0-3.49 9.45c0 3.36 1.1 6.77 3.49 9.45A13.86 13.86 0 0 0 80.1 122c4.28 0 8.02-1.76 10.4-4.44a14.15 14.15 0 0 0 3.49-9.45c0-3.36-1.1-6.77-3.48-9.45a13.86 13.86 0 0 0-10.4-4.44c-.34 0-.6.17-.93.2l-4.16-9.5a21.91 21.91 0 0 0 7.13-7.25l9.13 2.28c0 .13-.07.26-.07.38 0 3.36 1.1 6.77 3.49 9.45a13.86 13.86 0 0 0 10.4 4.44c4.28 0 8.02-1.75 10.4-4.44a14.15 14.15 0 0 0 3.49-9.45c0-3.35-1.1-6.77-3.48-9.45a13.86 13.86 0 0 0-10.4-4.44c-4.3 0-8.03 1.76-10.41 4.44-.32.35-.43.8-.7 1.17l-9-2.26c.18-1.13.68-2.16.68-3.35 0-3.36-.88-6.47-2.23-9.33l10.93-7.92a15.1 15.1 0 0 0 9.35 3.37 15.2 15.2 0 0 0 11.45-4.88 15.6 15.6 0 0 0 3.83-10.4c0-3.7-1.22-7.47-3.83-10.4A15.2 15.2 0 0 0 103.72 22a15.2 15.2 0 0 0-11.45 4.87 15.59 15.59 0 0 0-3.83 10.4c0 1.78.32 3.57.9 5.28l-10.78 7.8a22.04 22.04 0 0 0-15.12-6.13c-4.59 0-8.62 1.74-12.18 4.15l-6.13-6.13a14.53 14.53 0 0 0 1.65-6.35c0-3.36-1.1-6.77-3.49-9.45A13.86 13.86 0 0 0 32.9 22Zm0 8.33c2.2 0 3.32.68 4.18 1.64a6 6 0 0 1 1.37 3.92 6 6 0 0 1-1.37 3.92c-.86.96-1.98 1.63-4.18 1.63-2.2 0-3.32-.67-4.18-1.63a6 6 0 0 1-1.38-3.92 6 6 0 0 1 1.38-3.92c.86-.96 1.98-1.64 4.18-1.64Zm70.83 0c2.66 0 4.13.85 5.22 2.08a7.43 7.43 0 0 1 1.73 4.87c0 1.85-.64 3.65-1.73 4.87-1.09 1.22-2.56 2.07-5.22 2.07-2.66 0-4.13-.85-5.22-2.07a7.43 7.43 0 0 1-1.72-4.87 7.4 7.4 0 0 1 1.72-4.87c1.1-1.23 2.56-2.08 5.22-2.08ZM63.44 52.56c7.72 0 13.9 6.16 13.9 13.88 0 7.72-6.18 13.9-13.9 13.9a13.83 13.83 0 0 1-13.88-13.9c0-7.72 6.16-13.88 13.88-13.88Zm41.67 22.22c2.2 0 3.32.67 4.18 1.64a6 6 0 0 1 1.38 3.91 6 6 0 0 1-1.38 3.92c-.86.96-1.98 1.64-4.18 1.64-2.2 0-3.32-.68-4.18-1.64a6 6 0 0 1-1.37-3.92 6 6 0 0 1 1.37-3.91c.86-.97 1.98-1.64 4.18-1.64ZM32.9 94.22c2.2 0 3.32.68 4.18 1.64a6 6 0 0 1 1.37 3.92 6 6 0 0 1-1.37 3.91c-.86.97-1.98 1.64-4.18 1.64-2.2 0-3.32-.67-4.18-1.64a6 6 0 0 1-1.38-3.91 6 6 0 0 1 1.38-3.92c.86-.96 1.98-1.64 4.18-1.64Zm47.22 8.34c2.2 0 3.32.67 4.18 1.63a6 6 0 0 1 1.38 3.92 6 6 0 0 1-1.38 3.92c-.86.96-1.98 1.64-4.18 1.64-2.2 0-3.32-.68-4.18-1.64a6 6 0 0 1-1.37-3.92 6 6 0 0 1 1.37-3.92c.86-.96 1.98-1.63 4.18-1.63Z"/>
  <defs>
    <linearGradient id="paint0_linear_724_33" x1="138" x2="14.88" y1="144.36" y2="132.49" gradientUnits="userSpaceOnUse">
      <stop stop-color="#24AC9D"/>
      <stop offset="1" stop-color="#3B6FB5"/>
    </linearGradient>
  </defs>
</svg>
