<svg xmlns="http://www.w3.org/2000/svg" fill="none" viewBox="0 0 144 144">
  <path fill="url(#paint0_linear_668_33)" d="M128.35 55.45c12.87 7.23 12.87 25.87 0 33.1L34 141.57c-12.55 7.05-28-2.08-28-16.55V18.98C6 4.51 21.45-4.62 34 2.43l94.35 53.02Z" opacity=".6"/>
  <path fill="#F6D813" d="M34.82 25a10.2 10.2 0 0 0-7.25 3.03 10.38 10.38 0 0 0 0 14.62 10.21 10.21 0 0 0 14.5 0 10.38 10.38 0 0 0 0-14.62A10.21 10.21 0 0 0 34.82 25Zm11.44 0c1.9 2.14 3.22 4.8 3.71 7.76h59.2v49.12H50.22v7.75h67.94a3.86 3.86 0 0 0 3.85-3.88 3.86 3.86 0 0 0-3.85-3.87h-1.28v-53a3.86 3.86 0 0 0-3.84-3.88H46.26ZM29.7 50.85a7.72 7.72 0 0 0-7.7 7.76v31.02h23.08V58.61H72a3.82 3.82 0 0 0 3.6-2.38 3.9 3.9 0 0 0-2.11-5.1 3.98 3.98 0 0 0-1.49-.28H29.69Zm2.57 46.54c-2.72 0-5.33 1.09-7.26 3.03a10.38 10.38 0 0 0 0 14.62 10.21 10.21 0 0 0 14.5 0 10.38 10.38 0 0 0 0-14.62 10.21 10.21 0 0 0-7.24-3.03Zm25.64 0a10.2 10.2 0 0 0-7.25 3.03 10.38 10.38 0 0 0 0 14.62 10.21 10.21 0 0 0 14.5 0 10.38 10.38 0 0 0 0-14.62 10.21 10.21 0 0 0-7.25-3.03Zm25.64 0a10.2 10.2 0 0 0-7.25 3.03 10.38 10.38 0 0 0 0 14.62 10.21 10.21 0 0 0 14.5 0 10.38 10.38 0 0 0 0-14.62 10.21 10.21 0 0 0-7.25-3.03Zm25.64 0a10.2 10.2 0 0 0-7.25 3.03 10.39 10.39 0 0 0 0 14.62 10.21 10.21 0 0 0 14.5 0 10.38 10.38 0 0 0 0-14.62 10.22 10.22 0 0 0-7.25-3.03Z"/>
  <defs>
    <linearGradient id="paint0_linear_668_33" x1="138" x2="14.88" y1="144.36" y2="132.49" gradientUnits="userSpaceOnUse">
      <stop stop-color="#24AC9D"/>
      <stop offset="1" stop-color="#3B6FB5"/>
    </linearGradient>
  </defs>
</svg>
