<svg xmlns="http://www.w3.org/2000/svg" fill="none" viewBox="0 0 144 144">
  <path fill="url(#paint0_linear_730_8)" d="M128.35 55.45c12.87 7.23 12.87 25.87 0 33.1L34 141.57c-12.55 7.05-28-2.08-28-16.55V18.98C6 4.51 21.45-4.62 34 2.43l94.35 53.02Z" opacity=".6"/>
  <path fill="#F6D813" d="M55.25 19a11.28 11.28 0 0 0-11.12 10h-8.88A11.3 11.3 0 0 0 24 40.25v67.5A11.3 11.3 0 0 0 35.25 119h57.5A11.3 11.3 0 0 0 104 107.75v-67.5A11.3 11.3 0 0 0 92.75 29h-8.88c-.63-5.58-5.38-10-11.12-10h-17.5Zm0 7.5h17.5a3.7 3.7 0 0 1 3.75 3.75A3.7 3.7 0 0 1 72.75 34h-17.5a3.7 3.7 0 0 1-3.75-3.75 3.7 3.7 0 0 1 3.75-3.75Zm-20 10h10.67c2.03 3 5.47 5 9.33 5h17.5c3.86 0 7.3-2 9.33-5h10.67a3.7 3.7 0 0 1 3.75 3.75v67.5a3.7 3.7 0 0 1-3.75 3.75h-57.5a3.7 3.7 0 0 1-3.75-3.75v-67.5a3.7 3.7 0 0 1 3.75-3.75Zm10 15a3.75 3.75 0 1 0 0 7.5h37.5a3.75 3.75 0 1 0 0-7.5h-37.5Zm0 15a3.75 3.75 0 1 0 0 7.5h20a3.75 3.75 0 1 0 0-7.5h-20Zm39.93 9.97a3.7 3.7 0 0 0-2.58 1.13L67.47 92.73l-9.88-7.91a3.75 3.75 0 0 0-4.68 0l-12.5 10a3.75 3.75 0 0 0 4.68 5.86l10.16-8.13 10.16 8.13a3.75 3.75 0 0 0 5-.28l17.5-17.5a3.75 3.75 0 0 0-2.73-6.43Z"/>
  <defs>
    <linearGradient id="paint0_linear_730_8" x1="138" x2="14.88" y1="144.36" y2="132.49" gradientUnits="userSpaceOnUse">
      <stop stop-color="#24AC9D"/>
      <stop offset="1" stop-color="#3B6FB5"/>
    </linearGradient>
  </defs>
</svg>
