<svg xmlns="http://www.w3.org/2000/svg" fill="none" viewBox="0 0 144 144">
  <path fill="url(#paint0_linear_668_38)" d="M128.35 55.45c12.87 7.23 12.87 25.87 0 33.1L34 141.57c-12.55 7.05-28-2.08-28-16.55V18.98C6 4.51 21.45-4.62 34 2.43l94.35 53.02Z" opacity=".6"/>
  <path fill="#F6D813" d="M35.71 24C29.81 24 25 28.8 25 34.71v73.81c0 5.91 4.8 10.72 10.71 10.72h31.27a31.01 31.01 0 0 1-5.14-7.14H35.71a3.58 3.58 0 0 1-3.57-3.58v-73.8c0-1.97 1.6-3.58 3.57-3.58h54.77c1.97 0 3.57 1.6 3.57 3.57v32.55a30.9 30.9 0 0 1 7.14 1.97V34.71c0-5.9-4.8-10.71-10.71-10.71H35.7Zm9.53 21.43a3.57 3.57 0 1 0 0 7.14h2.38a3.57 3.57 0 1 0 0-7.14h-2.38Zm14.28 0a3.57 3.57 0 1 0 0 7.14h21.43a3.57 3.57 0 1 0 0-7.14H59.52ZM45.24 59.7a3.57 3.57 0 1 0 0 7.15h2.38a3.57 3.57 0 1 0 0-7.15h-2.38Zm14.28 0a3.57 3.57 0 1 0 0 7.15h21.43a3.57 3.57 0 1 0 0-7.15H59.52Zm29.77 11.9a26.2 26.2 0 1 0 0 52.4 26.2 26.2 0 0 0 0-52.4ZM45.24 74a3.57 3.57 0 1 0 0 7.14h2.38a3.57 3.57 0 1 0 0-7.14h-2.38Zm14.28 0a3.57 3.57 0 1 0 0 7.14h3.71A31.09 31.09 0 0 1 69.51 74h-9.99Zm29.77 4.76c10.5 0 19.04 8.55 19.04 19.05s-8.54 19.05-19.04 19.05a19.07 19.07 0 0 1-13.1-32.89 2.39 2.39 0 0 1 3.27 3.46 14.3 14.3 0 0 0 9.82 24.66 14.3 14.3 0 0 0 2.39-28.37v2.18a2.38 2.38 0 1 1-4.77 0v-4.76a2.38 2.38 0 0 1 2.39-2.38ZM45.24 88.3a3.57 3.57 0 1 0 0 7.14h2.38a3.57 3.57 0 1 0 0-7.14h-2.38Zm39.28 2.38c.61 0 1.22.23 1.69.7l4.76 4.76a2.38 2.38 0 1 1-3.37 3.36l-4.76-4.76a2.38 2.38 0 0 1 1.68-4.06Z"/>
  <defs>
    <linearGradient id="paint0_linear_668_38" x1="138" x2="14.88" y1="144.36" y2="132.49" gradientUnits="userSpaceOnUse">
      <stop stop-color="#24AC9D"/>
      <stop offset="1" stop-color="#3B6FB5"/>
    </linearGradient>
  </defs>
</svg>
