<svg xmlns="http://www.w3.org/2000/svg" fill="none" viewBox="0 0 144 144">
  <path fill="url(#paint0_linear_730_11)" d="M128.35 55.45c12.87 7.23 12.87 25.87 0 33.1L34 141.57c-12.55 7.05-28-2.08-28-16.55V18.98C6 4.51 21.45-4.62 34 2.43l94.35 53.02Z" opacity=".7"/>
  <path fill="#F6D813" d="M100.9 22c-3.62 0-6.84 1.5-8.88 3.8a11.54 11.54 0 0 0-2.32 4.1H48.92a23 23 0 0 0-19.3 10.53 11.83 11.83 0 0 0-8.65 3.78A12.04 12.04 0 0 0 18 52.26c0 2.85.93 5.76 2.97 8.05a11.73 11.73 0 0 0 7.84 3.74 23.01 23.01 0 0 0 20.11 11.9h32.9c4.61 0 8.7 2.06 11.46 5.3-.44.35-.89.7-1.26 1.12a12.04 12.04 0 0 0-2.97 8.05c0 2.85.93 5.76 2.97 8.05.55.62 1.2 1.16 1.9 1.65a15.05 15.05 0 0 1-12.1 6.1H41.04a11.54 11.54 0 0 0-2.33-4.11 11.86 11.86 0 0 0-8.87-3.8c-3.62 0-6.83 1.5-8.87 3.8a12.04 12.04 0 0 0-2.97 8.05c0 2.85.93 5.75 2.97 8.05a11.83 11.83 0 0 0 8.87 3.79c3.62 0 6.83-1.5 8.87-3.8a11.54 11.54 0 0 0 2.33-4.1h40.78c8.63 0 16.17-4.8 20.1-11.89 3.2-.25 6-1.67 7.85-3.74 2.04-2.3 2.97-5.2 2.97-8.05 0-2.85-.93-5.75-2.97-8.05-2-2.24-5.12-3.72-8.65-3.78a23 23 0 0 0-19.3-10.54h-32.9c-4.98 0-9.34-2.4-12.1-6.09.7-.49 1.35-1.03 1.9-1.65a12.1 12.1 0 0 0 2.96-8.05c0-2.85-.93-5.75-2.97-8.05-.37-.41-.81-.77-1.26-1.13a15.04 15.04 0 0 1 11.47-5.3H89.7a11.54 11.54 0 0 0 2.32 4.11c2.04 2.3 5.26 3.8 8.88 3.8 3.61 0 6.83-1.5 8.87-3.8 2.04-2.3 2.97-5.2 2.97-8.05 0-2.85-.93-5.75-2.97-8.05a11.86 11.86 0 0 0-8.88-3.79Zm0 7.9c1.64 0 2.37.47 2.97 1.14.59.66.97 1.7.97 2.8a4.3 4.3 0 0 1-.97 2.8c-.6.67-1.33 1.15-2.98 1.15-1.64 0-2.37-.48-2.97-1.14a4.22 4.22 0 0 1-.94-2.41c.03-.27.03-.54 0-.8a4.3 4.3 0 0 1 .94-2.4c.6-.67 1.33-1.15 2.97-1.15ZM29.83 48.31c1.65 0 2.38.47 2.97 1.14.6.66.98 1.7.98 2.8a4.3 4.3 0 0 1-.98 2.81c-.59.67-1.32 1.14-2.97 1.14-1.64 0-2.38-.47-2.97-1.14a4.32 4.32 0 0 1-.98-2.8c0-1.1.39-2.15.98-2.81.6-.67 1.33-1.14 2.97-1.14Zm71.05 38.15c1.65 0 2.38.48 2.98 1.14.59.67.97 1.71.97 2.81s-.38 2.14-.97 2.8c-.6.67-1.33 1.15-2.98 1.15-1.64 0-2.37-.48-2.97-1.14a4.32 4.32 0 0 1-.97-2.8c0-1.1.38-2.15.97-2.82.6-.66 1.33-1.14 2.97-1.14ZM29.83 106.2c1.65 0 2.38.48 2.97 1.14.52.59.87 1.47.95 2.41-.03.27-.03.54 0 .8a4.21 4.21 0 0 1-.95 2.4c-.59.67-1.32 1.15-2.97 1.15-1.64 0-2.38-.48-2.97-1.15a4.32 4.32 0 0 1-.98-2.8c0-1.1.39-2.14.98-2.8.6-.67 1.33-1.15 2.97-1.15Z"/>
  <defs>
    <linearGradient id="paint0_linear_730_11" x1="138" x2="14.88" y1="144.36" y2="132.49" gradientUnits="userSpaceOnUse">
      <stop stop-color="#24AC9D"/>
      <stop offset="1" stop-color="#3B6FB5"/>
    </linearGradient>
  </defs>
</svg>
